<svg xmlns="http://www.w3.org/2000/svg" width="233.267" height="35.767" viewBox="0 0 61.719 9.463"><path aria-label="NORGANCE" d="M6.854 2.576q0-.672-.077-.97-.033-.088-.386-.165-.342-.088-.485-.088-.044 0-.044-.121 0-.133.044-.177l.573.044q.43.022.728.022.286 0 .716-.033.441-.033.518-.033.022.066.022.165 0 .133-.044.133-.11 0-.485.088-.364.088-.386.165-.088.342-.088 1.026V6.82q0 .683.033 1.543-.044.044-.21.044-.187 0-.363-.253L2.643 2.09V6.8q0 .727.077 1.025.022.077.364.165.352.078.463.078.033 0 .033.132.01.132-.011.187-1.103-.055-1.268-.055l-1.268.055Q1 8.353 1 8.221q0-.154.033-.154.154 0 .496-.078.353-.088.386-.187.11-.287.11-1.036V2.433q0-.54-.077-.827-.033-.088-.375-.154-.341-.077-.496-.077-.044 0-.044-.132 0-.144.044-.188.86.022 1.125.022.573 0 .882-.022.407.75 3.737 5.402.033-.187.033-.452zM12.576 1.463q-1.048 0-1.654.915-.606.915-.606 2.117 0 .882.286 1.664.287.783.893 1.312.606.518 1.422.518.706 0 1.235-.452.53-.463.772-1.135.253-.684.253-1.455 0-.882-.286-1.654-.287-.783-.893-1.3-.607-.53-1.422-.53zm-2.327 5.909Q9.224 6.281 9.224 4.737q0-1.543 1.025-2.635Q11.286 1 12.741 1t2.491 1.102q1.037 1.092 1.037 2.635 0 1.544-1.037 2.635-1.036 1.091-2.491 1.091t-2.492-1.091zM19.929 1.562q-.496 0-.772.077-.044.011-.077.089-.022.066-.044.33-.011.254-.011.794v1.334q0 .32.959.32h.275q.386 0 .794-.386.42-.386.42-1.025 0-1.533-1.544-1.533zm.176-.485q.375 0 .76.11.387.11.761.331.375.22.618.629.242.407.242.948 0 .463-.352.97-.342.507-.937.782-.11.045-.067.11.552 1.158 1.268 1.941 1.059 1.158 1.72 1.158.033.066.033.154 0 .1-.033.165-.121.033-.298.033-1.543 0-2.679-1.587-.176-.243-.407-.573-.221-.342-.331-.485-.1-.155-.243-.331-.132-.177-.242-.265-.1-.088-.22-.143-.122-.044-.409-.044-.088 0-.132.01-.044 0-.088.045-.044.044-.044.132v1.62q0 .74.088.96.055.143.386.231.342.089.485.089.044 0 .044.154 0 .1-.022.165-1.103-.055-1.433-.055l-1.345.055q-.033-.033-.033-.198 0-.143.033-.143.154 0 .43-.067.275-.066.33-.165.078-.132.078-1.036V2.61q0-.65-.078-.949-.033-.088-.33-.165-.287-.077-.43-.077-.044 0-.044-.132 0-.144.044-.188l1.323.022q.33 0 .782-.022t.772-.022zM24.526 4.803q0-1.565 1.047-2.679Q26.62 1 28.142 1q.783 0 2.613.496.044 1.257.044 1.367 0 .165-.232.165-.11 0-.143-.055-.298-1.51-2.25-1.51-1.102 0-1.84.937-.739.937-.739 2.26 0 1.224.805 2.26.816 1.025 2.04 1.025.97 0 1.433-.242.077-.033.077-.166l-.011-.904v-.077q0-.716-.088-.948-.044-.11-.364-.176-.309-.066-.485-.066-.044 0-.044-.133 0-.143.044-.187 1.41.055 1.444.055.088 0 1.19-.055.023.066.023.154 0 .166-.045.166-.066 0-.308.077-.232.066-.33.121-.111.077-.111.739 0 .231.01.507.023.264.023.286 0 .199.077.386.077.188.077.22 0 .089-.275.2-.022.01-.22.087-.188.067-.243.089-.055.022-.254.088-.187.055-.309.077l-.33.066q-.21.044-.408.055-.188.022-.452.033-.254.022-.54.022-1.456 0-2.48-1.069-1.015-1.07-1.015-2.547zM35.958 1.077l2.205 5.821q.198.518.32.794.066.165.341.275.276.1.408.1.044 0 .044.209 0 .044-.022.11-1.102-.055-1.212-.055l-1.28.055q-.043-.044-.043-.176.01-.143.055-.143.132 0 .33-.056.199-.055.232-.143.022-.088.022-.176 0-.144-.044-.331-.033-.198-.066-.309l-.044-.12-.452-1.247q-.033-.044-.066-.044-.43-.033-.838-.033-.573 0-1.4.055l-.055.033-.474 1.213q-.188.551-.188.76 0 .155.088.221.1.077.32.132.22.045.32.045.033 0 .033.132.01.132-.011.187-1.103-.055-1.136-.055-.22 0-.386.011-.165.011-.374.022l-.386.022q-.044-.044-.044-.165 0-.154.044-.154.132 0 .342-.056.209-.055.286-.154.232-.298.518-1.036l1.919-4.928q.022-.055.055-.176.044-.122.066-.177.022-.066.066-.154.044-.1.077-.143.033-.045.077-.1.055-.055.11-.077.067-.022.144-.022zm-1.279 3.98q.574.022.783.022.485 0 1.003-.033l.033-.055-.893-2.437-.948 2.459q0 .044.022.044zM45.55 2.576q0-.672-.078-.97-.033-.088-.386-.165-.342-.088-.485-.088-.044 0-.044-.121 0-.133.044-.177l.573.044q.43.022.728.022.287 0 .717-.033.44-.033.518-.033.022.066.022.165 0 .133-.044.133-.11 0-.485.088-.364.088-.386.165-.088.342-.088 1.026V6.82q0 .683.033 1.543-.044.044-.21.044-.187 0-.364-.253L41.338 2.09V6.8q0 .727.077 1.025.022.077.364.165.353.078.463.078.033 0 .033.132.011.132-.011.187-1.102-.055-1.268-.055l-1.268.055q-.033-.033-.033-.165 0-.154.033-.154.155 0 .496-.078.353-.088.386-.187.11-.287.11-1.036V2.433q0-.54-.077-.827-.033-.088-.374-.154-.342-.077-.497-.077-.044 0-.044-.132 0-.144.044-.188.86.022 1.125.022.573 0 .882-.022.408.75 3.737 5.402.033-.187.033-.452zM54.424 6.336q0 .121-.155.849-.154.716-.22.75-.805.484-2.635.484-1.455 0-2.48-1.069-1.015-1.07-1.015-2.547 0-1.565 1.048-2.679Q50.014 1 51.535 1q1.301 0 2.68.276-.023 1.477-.023 1.587 0 .165-.231.165-.11 0-.144-.055-.033-.143-.088-.286-.044-.155-.21-.386-.154-.243-.385-.408-.22-.176-.64-.298-.407-.132-.926-.132-1.08 0-1.84.96-.761.947-.761 2.149 0 .893.308 1.642.31.75.97 1.246.673.485 1.588.485 1.091 0 1.687-.64.154-.164.264-.429.122-.276.177-.452.066-.187.099-.187.066 0 .154.022.1.022.155.044zM56.342 1.121q.496 0 1.72-.044t1.84-.044q.045.32.166.849.133.518.155.65-.056.055-.199.055-.143 0-.154-.077-.166-.606-.463-.771-.298-.177-.816-.177h-.739q-.948 0-.97.144-.055.264-.055.926v1.763q0 .067.474.067h1.025q.144 0 .298-.044.154-.045.198-.056.045-.01.11-.143.078-.132.089-.187.01-.066.077-.32.011-.077.165-.077.133 0 .188.055v2.084q-.044.044-.177.044-.143 0-.176-.089-.077-.297-.132-.44-.055-.155-.088-.177-.022-.033-.089-.077-.143-.088-1.168-.088-.794 0-.794.099v1.709q0 .716.1 1.003.032.11.749.11h.53q1.024 0 1.388-.187.166-.088.364-.386.21-.309.33-.728.023-.066.155-.066.21 0 .276.066l-.177.463q-.11.309-.176.507-.066.188-.143.441-.078.254-.1.42-.562 0-1.775-.023-1.212-.022-1.984-.022l-1.334.033q-.033-.033-.033-.176t.033-.143q.143 0 .42-.078.286-.077.34-.176.078-.132.078-1.036V2.61q0-.65-.077-.949-.033-.088-.33-.165-.288-.077-.43-.077-.045 0-.045-.132 0-.144.044-.188.573.022 1.312.022z"/></svg>